<svg width="50" height="50" viewBox="0 0 50 50" fill="none" xmlns="http://www.w3.org/2000/svg">
<path d="M21.5 12.3542C21.5 12.75 21.3542 13.1458 21.0417 13.4583L9.5 25L21.0417 36.5417C21.6458 37.1458 21.6458 38.1458 21.0417 38.75C20.4375 39.3542 19.4375 39.3542 18.8333 38.75L6.1875 26.1042C5.58333 25.5 5.58333 24.5 6.1875 23.8958L18.8333 11.25C19.4375 10.6458 20.4375 10.6458 21.0417 11.25C21.3542 11.5417 21.5 11.9583 21.5 12.3542Z" fill="#292D32"/>
<path d="M44.271 25C44.271 25.8542 43.5627 26.5625 42.7085 26.5625L7.646 26.5625C6.79183 26.5625 6.0835 25.8542 6.0835 25C6.0835 24.1458 6.79183 23.4375 7.646 23.4375L42.7085 23.4375C43.5627 23.4375 44.271 24.1458 44.271 25Z" fill="#292D32"/>
</svg>
