<?xml version="1.0" encoding="UTF-8"?><svg id="Capa_2" xmlns="http://www.w3.org/2000/svg" viewBox="0 0 37 37"><defs><style>.cls-1{fill:none;stroke:#000;stroke-miterlimit:10;}</style></defs><g id="Capa_1-2"><g id="Behance"><path class="cls-1" d="M.5,4.5C.5,2.29,2.29,.5,4.5,.5h28c2.21,0,4,1.79,4,4v28c0,2.21-1.79,4-4,4H4.5c-2.21,0-4-1.79-4-4V4.5Z"/><path class="cls-1" d="M21.5,11.5h7v2h-7v-2Zm-5.49,6.43c.58-.28,1.9-.93,1.9-2.86,0-3.62-3.95-3.57-4.68-3.57H6.5v14h7.02c.59,0,4.98-.17,4.98-4,0-2.48-1.61-3.28-2.49-3.57Zm-6.51-4h2.93c.29,0,2.19,.1,2.19,1.57s-1.46,1.71-1.9,1.71h-3.22v-3.29Zm3.34,9.14h-3.37v-3.86h3.37c.73,0,2.34,.24,2.34,2s-2.05,1.86-2.34,1.86Zm14.1-.18c-.47,.29-.93,.44-1.55,.44-2.33,0-2.79-1.96-2.79-2.83h7.9c0-.87,0-1.51-.15-2.24-.16-.73-1.22-3.77-5.11-3.77-5.44,0-5.73,4.78-5.73,5.5s.16,1.59,.47,2.17c.31,.72,.62,1.3,1.08,1.74,.46,.43,1.08,.87,1.7,1.16,.77,.29,1.55,.44,2.32,.44,1.24,0,2.32-.29,3.25-.87,.93-.58,1.55-1.45,2.01-2.61h-2.63c-.15,.29-.31,.58-.77,.87Zm-1.7-6.37c1.52,0,2.17,1.59,2.32,2.31h-4.96c0-.14,.37-2.31,2.63-2.31Z"/></g></g></svg>