<svg width="60" height="60" viewBox="0 0 60 60" fill="none" xmlns="http://www.w3.org/2000/svg">
<g clip-path="url(#clip0_372_8948)">
<path d="M0 6.66667C0 2.98333 2.98333 0 6.66667 0H53.3333C57.0167 0 60 2.98333 60 6.66667V53.3333C60 57.0167 57.0167 60 53.3333 60H6.66667C2.98333 60 0 57.0167 0 53.3333V6.66667Z" fill="#438ECC"/>
<path d="M35 18.3333H46.6667V21.6666H35V18.3333ZM25.85 29.05C26.8167 28.5833 29.0167 27.5 29.0167 24.2833C29.0167 18.25 22.4333 18.3333 21.2167 18.3333H10V41.6666H21.7C22.6833 41.6666 30 41.3833 30 35C30 30.8666 27.3167 29.5333 25.85 29.05ZM15 22.3833H19.8833C20.3667 22.3833 23.5333 22.55 23.5333 25C23.5333 27.45 21.1 27.85 20.3667 27.85H15V22.3666V22.3833ZM20.5667 37.6166H14.95V31.1833H20.5667C21.7833 31.1833 24.4667 31.5833 24.4667 34.5166C24.4667 37.45 21.05 37.6166 20.5667 37.6166ZM44.0667 37.3166C43.2833 37.8 42.5167 38.05 41.4833 38.05C37.6 38.05 36.8333 34.7833 36.8333 33.3333H50C50 31.8833 50 30.8166 49.75 29.6C49.4833 28.3833 47.7167 23.3166 41.2333 23.3166C32.1667 23.3166 31.6833 31.2833 31.6833 32.4833C31.6833 33.6833 31.95 35.1333 32.4667 36.1C32.9833 37.3 33.5 38.2666 34.2667 39C35.0333 39.7166 36.0667 40.45 37.1 40.9333C38.3833 41.4166 39.6833 41.6666 40.9667 41.6666C43.0333 41.6666 44.8333 41.1833 46.3833 40.2166C47.9333 39.25 48.9667 37.8 49.7333 35.8666H45.35C45.1 36.35 44.8333 36.8333 44.0667 37.3166V37.3166ZM41.2333 26.7C43.7667 26.7 44.85 29.35 45.1 30.55H36.8333C36.8333 30.3166 37.45 26.7 41.2167 26.7H41.2333Z" fill="white"/>
</g>
<defs>
<clipPath id="clip0_372_8948">
<rect width="60" height="60" fill="white"/>
</clipPath>
</defs>
</svg>
