<svg width="62" height="62" viewBox="0 0 62 62" fill="none" xmlns="http://www.w3.org/2000/svg">
<path d="M1 7.66667C1 3.98333 3.98333 1 7.66667 1H54.3333C58.0167 1 61 3.98333 61 7.66667V54.3333C61 58.0167 58.0167 61 54.3333 61H7.66667C3.98333 61 1 58.0167 1 54.3333V7.66667Z" fill="white" stroke="black" stroke-miterlimit="10"/>
<path d="M35.9998 19.3333H47.6664V22.6666H35.9998V19.3333ZM26.8498 30.05C27.8164 29.5833 30.0164 28.5 30.0164 25.2833C30.0164 19.25 23.4331 19.3333 22.2164 19.3333H10.9998V42.6666H22.6998C23.6831 42.6666 30.9998 42.3833 30.9998 36C30.9998 31.8666 28.3164 30.5333 26.8498 30.05ZM15.9998 23.3833H20.8831C21.3664 23.3833 24.5331 23.55 24.5331 26C24.5331 28.45 22.0998 28.85 21.3664 28.85H15.9998V23.3666V23.3833ZM21.5664 38.6166H15.9498V32.1833H21.5664C22.7831 32.1833 25.4664 32.5833 25.4664 35.5166C25.4664 38.45 22.0498 38.6166 21.5664 38.6166V38.6166ZM45.0664 38.3166C44.2831 38.8 43.5164 39.05 42.4831 39.05C38.5998 39.05 37.8331 35.7833 37.8331 34.3333H50.9998C50.9998 32.8833 50.9998 31.8166 50.7498 30.6C50.4831 29.3833 48.7164 24.3166 42.2331 24.3166C33.1664 24.3166 32.6831 32.2833 32.6831 33.4833C32.6831 34.6833 32.9498 36.1333 33.4664 37.1C33.9831 38.3 34.4998 39.2666 35.2664 40C36.0331 40.7166 37.0664 41.45 38.0998 41.9333C39.3831 42.4166 40.6831 42.6666 41.9664 42.6666C44.0331 42.6666 45.8331 42.1833 47.3831 41.2166C48.9331 40.25 49.9664 38.8 50.7331 36.8666H46.3498C46.0998 37.35 45.8331 37.8333 45.0664 38.3166V38.3166ZM42.2331 27.7C44.7664 27.7 45.8498 30.35 46.0998 31.55H37.8331C37.8331 31.3166 38.4498 27.7 42.2164 27.7H42.2331Z" fill="white" stroke="black" stroke-miterlimit="10"/>
</svg>
