<svg width="22" height="13" viewBox="0 0 22 13" fill="none" xmlns="http://www.w3.org/2000/svg">
<path d="M11.3372 12.513C11.4928 12.513 11.6402 12.4843 11.7794 12.427C11.9268 12.3615 12.0538 12.2714 12.1603 12.1567L21.6683 2.41515C21.8894 2.19403 22 1.93196 22 1.62895C22 1.41602 21.9509 1.22356 21.8526 1.05158C21.7543 0.879597 21.6192 0.744468 21.4472 0.646193C21.2834 0.547917 21.0951 0.498779 20.8821 0.498779C20.5791 0.498779 20.313 0.605244 20.0836 0.818175L10.6738 10.4369H11.9883L2.57847 0.818175C2.35735 0.605244 2.09119 0.498779 1.77998 0.498779C1.56706 0.498779 1.3746 0.547917 1.20262 0.646193C1.03883 0.744468 0.907796 0.879597 0.809521 1.05158C0.711247 1.22356 0.662109 1.41602 0.662109 1.62895C0.662109 1.78455 0.690773 1.93196 0.7481 2.07119C0.805427 2.20222 0.887322 2.32097 0.993787 2.42744L10.5019 12.1567C10.7476 12.3942 11.026 12.513 11.3372 12.513Z" fill="black"/>
</svg>
