<?xml version="1.0" encoding="UTF-8"?><svg id="Capa_2" xmlns="http://www.w3.org/2000/svg" viewBox="0 0 36 36"><defs><style>.cls-1{fill:#e95126;}.cls-2{fill:#ee7364;}.cls-3{fill:#8562a7;}.cls-4{fill:#42b7ea;}.cls-5{fill:#4cb37a;}</style></defs><g id="Capa_1-2"><g><path d="M0,4C0,1.79,1.79,0,4,0h28c2.21,0,4,1.79,4,4v28c0,2.21-1.79,4-4,4H4c-2.21,0-4-1.79-4-4V4Z"/><g id="Figma"><path class="cls-1" d="M12.99,13.51c-.16-.1-.35-.08-.52-.13-2.15-.52-3.56-2.37-3.49-4.61,.06-2.06,1.64-3.84,3.75-4.22,.05,0,.13,.02,.16-.06h5.11c.06,.1,.05,.2,.05,.31,0,2.79,0,5.58,0,8.37,0,.24-.06,.29-.29,.29-1.44-.01-2.88,0-4.32,0-.08,0-.18-.03-.25,.05-.07,0-.13,0-.2,0Z"/><path class="cls-2" d="M13.19,13.51c.07-.08,.16-.05,.25-.05,1.44,0,2.88,0,4.32,0,.23,0,.3-.06,.29-.29,0-2.79,0-5.58,0-8.37,0-.11,0-.21-.05-.31h4.96c.41,.11,.83,.17,1.23,.34,1.82,.76,2.97,2.61,2.75,4.6-.23,2.12-1.8,3.73-3.82,4.02-.12,.02-.24,.03-.36,.05-.28,0-.56,.01-.84,.02-1.3,0-2.59,0-3.89,0-1.61,0-3.22,0-4.83-.01Z"/><path class="cls-3" d="M13.19,13.51c1.61,0,3.22,0,4.83,.01,0,.15,0,.3,0,.45,0,1.1,0,2.2,.01,3.31,0,.46,0,.92,0,1.38,0,1.18,0,2.35,0,3.53,0,.1-.01,.21-.02,.31-.9,0-1.79,0-2.69,0-.76,0-1.52-.01-2.28,.03-.16-.13-.37-.1-.55-.14-2.11-.49-3.53-2.39-3.46-4.62,.06-2.05,1.68-3.86,3.75-4.19,.07-.01,.14-.03,.2-.05,.07,0,.13,0,.2,0Z"/><path class="cls-5" d="M13.04,22.52c.76-.04,1.52-.03,2.28-.03,.9,0,1.79,0,2.69,0,0,.07,.02,.14,.02,.21,0,1.42,0,2.85,0,4.27-.02,2.21-1.49,3.99-3.65,4.44-2.47,.52-4.97-1.26-5.3-3.76-.34-2.57,1.41-4.84,3.96-5.13Z"/><path class="cls-4" d="M18.04,18.65c0-.46,0-.92,0-1.38,.09-.08,.07-.19,.1-.29,.38-1.51,1.3-2.56,2.74-3.17,.33-.14,.69-.2,1.03-.29,.28,0,.56-.01,.84-.02,1.99,.16,3.5,1.35,4.08,3.19,.8,2.54-.94,5.33-3.55,5.74-2.61,.41-4.81-1.39-5.19-3.67,0-.04-.03-.08-.05-.12Z"/></g></g></g></svg>