<svg width="62" height="62" viewBox="0 0 62 62" fill="none" xmlns="http://www.w3.org/2000/svg">
<path d="M1 7.66667C1 3.98333 3.98333 1 7.66667 1H54.3333C58.0167 1 61 3.98333 61 7.66667V54.3333C61 58.0167 58.0167 61 54.3333 61H7.66667C3.98333 61 1 58.0167 1 54.3333V7.66667Z" fill="white" stroke="black" stroke-miterlimit="10"/>
<path d="M22.6501 23.5167C22.3835 23.3501 22.0668 23.3834 21.7835 23.3001C18.2001 22.4334 15.8501 19.3501 15.9668 15.6167C16.0668 12.1834 18.7001 9.21673 22.2168 8.5834C22.3001 8.5834 22.4335 8.61673 22.4835 8.4834H31.0001C31.1001 8.65007 31.0835 8.81673 31.0835 9.00007C31.0835 13.6501 31.0835 18.3001 31.0835 22.9501C31.0835 23.3501 30.9835 23.4334 30.6001 23.4334C28.2001 23.4167 25.8001 23.4334 23.4001 23.4334C23.2668 23.4334 23.1001 23.3834 22.9835 23.5167C22.8668 23.5167 22.7668 23.5167 22.6501 23.5167V23.5167Z" fill="white" stroke="black" stroke-miterlimit="10"/>
<path d="M22.9832 23.5167C23.0998 23.3834 23.2498 23.4334 23.3998 23.4334C25.7998 23.4334 28.1998 23.4334 30.5998 23.4334C30.9832 23.4334 31.0998 23.3334 31.0832 22.9501C31.0832 18.3001 31.0832 13.6501 31.0832 9.00007C31.0832 8.81673 31.0832 8.65007 30.9998 8.4834H39.2665C39.9498 8.66673 40.6498 8.76673 41.3165 9.05007C44.3498 10.3167 46.2665 13.4001 45.8998 16.7167C45.5165 20.2501 42.8998 22.9334 39.5332 23.4167C39.3332 23.4501 39.1332 23.4667 38.9332 23.5001C38.4665 23.5001 37.9998 23.5167 37.5332 23.5334C35.3665 23.5334 33.2165 23.5334 31.0498 23.5334C28.3665 23.5334 25.6832 23.5334 22.9998 23.5167H22.9832Z" fill="white" stroke="black" stroke-miterlimit="10"/>
<path d="M22.9834 23.5167C25.6667 23.5167 28.35 23.5167 31.0334 23.5334C31.0334 23.7834 31.0334 24.0334 31.0334 24.2834C31.0334 26.1167 31.0334 27.9501 31.05 29.8001C31.05 30.5667 31.05 31.3334 31.05 32.1001C31.05 34.0667 31.05 36.0167 31.05 37.9834C31.05 38.1501 31.0334 38.3334 31.0167 38.5001C29.5167 38.5001 28.0334 38.5001 26.5334 38.5001C25.2667 38.5001 24 38.4834 22.7334 38.5501C22.4667 38.3334 22.1167 38.3834 21.8167 38.3167C18.3 37.5001 15.9334 34.3334 16.05 30.6167C16.15 27.2001 18.85 24.1834 22.3 23.6334C22.4167 23.6167 22.5334 23.5834 22.6334 23.5501C22.75 23.5501 22.85 23.5501 22.9667 23.5501L22.9834 23.5167Z" fill="white" stroke="black" stroke-miterlimit="10"/>
<path d="M22.7333 38.5333C24 38.4666 25.2667 38.4833 26.5333 38.4833C28.0333 38.4833 29.5167 38.4833 31.0167 38.4833C31.0167 38.6 31.05 38.7166 31.05 38.8333C31.05 41.2 31.05 43.5833 31.05 45.95C31.0167 49.6333 28.5667 52.6 24.9667 53.35C20.85 54.2166 16.6833 51.25 16.1333 47.0833C15.5667 42.8 18.4833 39.0166 22.7333 38.5333Z" fill="white" stroke="black" stroke-miterlimit="10"/>
<path d="M31.0667 32.0835C31.0667 31.3168 31.0667 30.5501 31.0667 29.7835C31.2167 29.6501 31.1833 29.4668 31.2333 29.3001C31.8666 26.7835 33.4 25.0335 35.8 24.0168C36.35 23.7835 36.95 23.6835 37.5166 23.5335C37.9833 23.5335 38.45 23.5168 38.9166 23.5001C42.2333 23.7668 44.75 25.7501 45.7166 28.8168C47.05 33.0501 44.15 37.7001 39.8 38.3835C35.45 39.0668 31.7833 36.0668 31.15 32.2668C31.15 32.2001 31.1 32.1335 31.0667 32.0668V32.0835Z" fill="white" stroke="black" stroke-miterlimit="10"/>
</svg>
