<svg width="60" height="60" viewBox="0 0 60 60" fill="none" xmlns="http://www.w3.org/2000/svg">
<g clip-path="url(#clip0_372_8953)">
<path d="M0 6.66667C0 2.98333 2.98333 0 6.66667 0H53.3333C57.0167 0 60 2.98333 60 6.66667V53.3333C60 57.0167 57.0167 60 53.3333 60H6.66667C2.98333 60 0 57.0167 0 53.3333V6.66667Z" fill="black"/>
<path d="M21.6499 22.5166C21.3832 22.3499 21.0666 22.3833 20.7832 22.2999C17.1999 21.4333 14.8499 18.3499 14.9666 14.6166C15.0666 11.1833 17.6999 8.21661 21.2166 7.58328C21.2999 7.58328 21.4332 7.61661 21.4832 7.48328H29.9999C30.0999 7.64994 30.0832 7.81661 30.0832 7.99994C30.0832 12.6499 30.0832 17.2999 30.0832 21.9499C30.0832 22.3499 29.9832 22.4333 29.5999 22.4333C27.1999 22.4166 24.7999 22.4333 22.3999 22.4333C22.2666 22.4333 22.0999 22.3833 21.9832 22.5166C21.8666 22.5166 21.7666 22.5166 21.6499 22.5166V22.5166Z" fill="#E95126"/>
<path d="M21.9832 22.5166C22.0998 22.3833 22.2498 22.4333 22.3998 22.4333C24.7998 22.4333 27.1998 22.4333 29.5998 22.4333C29.9832 22.4333 30.0998 22.3333 30.0832 21.9499C30.0832 17.2999 30.0832 12.6499 30.0832 7.99994C30.0832 7.81661 30.0832 7.64994 29.9998 7.48328H38.2665C38.9498 7.66661 39.6498 7.76661 40.3165 8.04994C43.3498 9.31661 45.2665 12.3999 44.8998 15.7166C44.5165 19.2499 41.8998 21.9333 38.5332 22.4166C38.3332 22.4499 38.1332 22.4666 37.9332 22.4999C37.4665 22.4999 36.9998 22.5166 36.5332 22.5333C34.3665 22.5333 32.2165 22.5333 30.0498 22.5333C27.3665 22.5333 24.6832 22.5333 21.9998 22.5166H21.9832Z" fill="#EE7364"/>
<path d="M21.9831 22.5166C24.6664 22.5166 27.3498 22.5166 30.0331 22.5333C30.0331 22.7833 30.0331 23.0333 30.0331 23.2833C30.0331 25.1166 30.0331 26.9499 30.0498 28.7999C30.0498 29.5666 30.0498 30.3333 30.0498 31.0999C30.0498 33.0666 30.0498 35.0166 30.0498 36.9833C30.0498 37.1499 30.0331 37.3333 30.0164 37.4999C28.5164 37.4999 27.0331 37.4999 25.5331 37.4999C24.2664 37.4999 22.9998 37.4833 21.7331 37.5499C21.4664 37.3333 21.1164 37.3833 20.8164 37.3166C17.2998 36.4999 14.9331 33.3333 15.0498 29.6166C15.1498 26.1999 17.8498 23.1833 21.2998 22.6333C21.4164 22.6166 21.5331 22.5833 21.6331 22.5499C21.7498 22.5499 21.8498 22.5499 21.9664 22.5499L21.9831 22.5166Z" fill="#8562A7"/>
<path d="M21.7333 37.5333C23 37.4666 24.2667 37.4833 25.5333 37.4833C27.0333 37.4833 28.5167 37.4833 30.0167 37.4833C30.0167 37.6 30.05 37.7166 30.05 37.8333C30.05 40.2 30.05 42.5833 30.05 44.95C30.0167 48.6333 27.5667 51.6 23.9667 52.35C19.85 53.2166 15.6833 50.25 15.1333 46.0833C14.5667 41.8 17.4833 38.0166 21.7333 37.5333Z" fill="#4CB37A"/>
<path d="M30.0667 31.0833C30.0667 30.3167 30.0667 29.55 30.0667 28.7833C30.2167 28.65 30.1833 28.4667 30.2333 28.3C30.8666 25.7833 32.4 24.0333 34.8 23.0167C35.35 22.7833 35.95 22.6833 36.5166 22.5333C36.9833 22.5333 37.45 22.5167 37.9166 22.5C41.2333 22.7667 43.75 24.75 44.7166 27.8167C46.05 32.05 43.15 36.7 38.8 37.3833C34.45 38.0667 30.7833 35.0667 30.15 31.2667C30.15 31.2 30.1 31.1333 30.0667 31.0667V31.0833Z" fill="#42B7EA"/>
</g>
<defs>
<clipPath id="clip0_372_8953">
<rect width="60" height="60" fill="white"/>
</clipPath>
</defs>
</svg>
