<svg width="62" height="62" viewBox="0 0 62 62" fill="none" xmlns="http://www.w3.org/2000/svg">
<path d="M61 52.6667C61 57.2667 57.2667 61 52.6667 61H9.33333C4.73333 61 1 57.2667 1 52.6667V9.33333C1 4.73333 4.73333 1 9.33333 1H52.6667C57.2667 1 61 4.73333 61 9.33333V52.6667Z" fill="white" stroke="black" stroke-miterlimit="10"/>
<path d="M11.0001 22.6667H19.3334V51H11.0001V22.6667ZM15.1334 19.3333H15.0834C12.6001 19.3333 10.9834 17.4833 10.9834 15.1667C10.9834 12.85 12.6334 11 15.1667 11C17.7001 11 19.2667 12.8 19.3167 15.1667C19.3167 17.4833 17.7001 19.3333 15.1167 19.3333H15.1334ZM51.0001 51H42.6667V35.8333C42.6667 32.1667 40.6167 29.6667 37.3501 29.6667C34.8501 29.6667 33.5001 31.35 32.8334 32.9833C32.6001 33.5667 32.6667 35.1833 32.6667 36V51H24.3334V22.6667H32.6667V27.0333C33.8667 25.1667 35.7501 22.6667 40.5667 22.6667C46.5334 22.6667 51.0001 26.4167 51.0001 34.7833V51V51Z" fill="white" stroke="black" stroke-miterlimit="10"/>
</svg>
