<svg width="60" height="60" viewBox="0 0 60 60" fill="none" xmlns="http://www.w3.org/2000/svg">
<path d="M0 6.66667C0 2.98333 2.98333 0 6.66667 0H53.3333C57.0167 0 60 2.98333 60 6.66667V53.3333C60 57.0167 57.0167 60 53.3333 60H6.66667C2.98333 60 0 57.0167 0 53.3333V6.66667Z" fill="#4CB37A"/>
<path d="M25.6201 33.8994C26.2947 34.5879 27.0999 35.1349 27.9886 35.5083C28.8772 35.8817 29.8315 36.0741 30.7954 36.0741C31.7593 36.0741 32.7135 35.8817 33.6022 35.5083C34.4908 35.1349 35.2961 34.5879 35.9707 33.8994L44.2511 25.619C45.6237 24.2464 46.3948 22.3848 46.3948 20.4437C46.3948 18.5026 45.6237 16.641 44.2511 15.2684C42.8785 13.8959 41.0169 13.1248 39.0758 13.1248C37.1347 13.1248 35.2731 13.8959 33.9005 15.2684L32.8655 16.3035" stroke="white" stroke-width="4" stroke-linecap="round" stroke-linejoin="round"/>
<path d="M33.9001 25.6189C33.2255 24.9304 32.4203 24.3834 31.5317 24.01C30.643 23.6366 29.6888 23.4442 28.7249 23.4442C27.7609 23.4442 26.8067 23.6366 25.9181 24.01C25.0294 24.3834 24.2242 24.9304 23.5496 25.6189L15.2692 33.8993C13.8966 35.2719 13.1255 37.1335 13.1255 39.0746C13.1255 41.0157 13.8966 42.8773 15.2692 44.2499C16.6417 45.6224 18.5033 46.3935 20.4444 46.3935C22.3855 46.3935 24.2471 45.6224 25.6197 44.2499L26.6547 43.2148" stroke="white" stroke-width="4" stroke-linecap="round" stroke-linejoin="round"/>
</svg>
