<svg width="61" height="61" viewBox="0 0 61 61" fill="none" xmlns="http://www.w3.org/2000/svg">
<path d="M0 6.77778C0 3.03306 3.03306 0 6.77778 0H54.2222C57.9669 0 61 3.03306 61 6.77778V54.2222C61 57.9669 57.9669 61 54.2222 61H6.77778C3.03306 61 0 57.9669 0 54.2222V6.77778Z" fill="#4CB37A"/>
<path d="M26.0471 34.4644C26.733 35.1644 27.5516 35.7205 28.4551 36.1001C29.3585 36.4798 30.3287 36.6753 31.3086 36.6753C32.2886 36.6753 33.2588 36.4798 34.1622 36.1001C35.0657 35.7205 35.8843 35.1644 36.5702 34.4644L44.9886 26.046C46.384 24.6505 47.168 22.7579 47.168 20.7844C47.168 18.811 46.384 16.9183 44.9886 15.5229C43.5932 14.1275 41.7005 13.3435 39.7271 13.3435C37.7536 13.3435 35.861 14.1275 34.4656 15.5229L33.4133 16.5752" stroke="white" stroke-width="4" stroke-linecap="round" stroke-linejoin="round"/>
<path d="M34.4651 26.0459C33.7793 25.3459 32.9606 24.7898 32.0572 24.4101C31.1537 24.0305 30.1836 23.835 29.2036 23.835C28.2236 23.835 27.2535 24.0305 26.35 24.4101C25.4465 24.7898 24.6279 25.3459 23.9421 26.0459L15.5236 34.4643C14.1282 35.8598 13.3442 37.7524 13.3442 39.7258C13.3442 41.6993 14.1282 43.5919 15.5236 44.9874C16.9191 46.3828 18.8117 47.1668 20.7852 47.1668C22.7586 47.1668 24.6512 46.3828 26.0467 44.9874L27.099 43.9351" stroke="white" stroke-width="4" stroke-linecap="round" stroke-linejoin="round"/>
</svg>
