<svg width="60" height="60" viewBox="0 0 60 60" fill="none" xmlns="http://www.w3.org/2000/svg">
<g clip-path="url(#clip0_372_8963)">
<path d="M60 51.6667C60 56.2667 56.2667 60 51.6667 60H8.33333C3.73333 60 0 56.2667 0 51.6667V8.33333C0 3.73333 3.73333 0 8.33333 0H51.6667C56.2667 0 60 3.73333 60 8.33333V51.6667Z" fill="#1787C9"/>
<path d="M10.0001 21.6667H18.3334V50H10.0001V21.6667ZM14.1334 18.3333H14.0834C11.6001 18.3333 9.9834 16.4833 9.9834 14.1667C9.9834 11.85 11.6334 10 14.1667 10C16.7001 10 18.2667 11.8 18.3167 14.1667C18.3167 16.4833 16.7001 18.3333 14.1167 18.3333H14.1334ZM50.0001 50H41.6667V34.8333C41.6667 31.1667 39.6167 28.6667 36.3501 28.6667C33.8501 28.6667 32.5001 30.35 31.8334 31.9833C31.6001 32.5667 31.6667 34.1833 31.6667 35V50H23.3334V21.6667H31.6667V26.0333C32.8667 24.1667 34.7501 21.6667 39.5667 21.6667C45.5334 21.6667 50.0001 25.4167 50.0001 33.7833V50V50Z" fill="white"/>
</g>
<defs>
<clipPath id="clip0_372_8963">
<rect width="60" height="60" fill="white"/>
</clipPath>
</defs>
</svg>
