<svg width="60" height="60" viewBox="0 0 60 60" fill="none" xmlns="http://www.w3.org/2000/svg">
<path d="M0.5 6.66667C0.5 3.25948 3.25948 0.5 6.66667 0.5H53.3333C56.7405 0.5 59.5 3.25948 59.5 6.66667V53.3333C59.5 56.7405 56.7405 59.5 53.3333 59.5H6.66667C3.25948 59.5 0.5 56.7405 0.5 53.3333V6.66667Z" fill="white" stroke="black"/>
<path d="M30.4959 37.8233C27.9616 37.7525 25.7706 36.8706 23.9782 35.0566C23.3898 34.4619 23.2314 33.7402 23.5167 32.9734C23.802 32.2065 24.3973 31.763 25.2285 31.6972C25.9143 31.6422 26.4445 31.9567 26.9315 32.4198C28.9906 34.3802 32.2402 34.338 34.2561 32.3402C34.9309 31.6707 35.6009 30.9962 36.2728 30.3247C38.3713 28.2285 40.4698 26.1325 42.5682 24.0353C44.1748 22.4289 44.6431 20.1145 43.7695 18.1059C42.8585 16.0098 40.8673 14.7484 38.576 14.8486C37.2675 14.9057 36.1283 15.4032 35.174 16.3028C34.7686 16.6843 34.3967 17.1021 33.9874 17.4796C33.2023 18.2013 32.0208 18.1944 31.2662 17.4835C30.5372 16.7963 30.4083 15.6126 31.0685 14.8536C32.4488 13.2667 34.0258 11.9562 36.0899 11.2974C42.1728 9.35572 48.5302 14.2932 48.1307 20.6641C47.9851 22.9814 47.1548 25.0008 45.5266 26.6497C42.6372 29.5755 39.7299 32.4857 36.7952 35.3654C35.1602 36.97 32.7537 37.8587 30.4979 37.8233H30.4959Z" fill="white" stroke="black" stroke-miterlimit="10"/>
<path d="M28.4765 21.2097C31.0206 21.2746 33.186 22.1447 34.9764 23.8997C35.8088 24.7147 35.8501 25.9329 35.1024 26.7204C34.3173 27.5472 33.1308 27.56 32.2514 26.7499C29.8804 24.5682 26.8039 24.645 24.5313 26.9278C21.8032 29.6679 19.0593 32.3922 16.3333 35.1343C14.8417 36.6337 14.4118 38.9942 15.2461 40.9203C16.1197 42.9378 18.0952 44.2542 20.2439 44.2001C21.6734 44.1647 22.9287 43.6613 23.9548 42.6408C24.3031 42.2937 24.6444 41.9398 24.9996 41.5997C25.8123 40.821 27.0105 40.817 27.7858 41.583C28.562 42.3508 28.5729 43.5404 27.8163 44.3643C26.3543 45.9551 24.7251 47.2716 22.5706 47.8388C18.5517 48.8967 14.2987 47.1653 12.1638 43.5581C10.0614 40.0069 10.5513 35.4215 13.4299 32.4719C16.2909 29.5391 19.1961 26.6487 22.118 23.7768C23.8811 22.0445 26.0601 21.253 28.4784 21.2097H28.4765Z" fill="white" stroke="black" stroke-miterlimit="10"/>
</svg>
