<?xml version="1.0" encoding="UTF-8"?><svg id="Capa_2" xmlns="http://www.w3.org/2000/svg" viewBox="0 0 36 36"><defs><style>.cls-1{fill:#fff;}.cls-2{fill:#1787c9;}</style></defs><g id="Capa_1-2"><g id="Linkedin"><path class="cls-2" d="M36,31c0,2.76-2.24,5-5,5H5c-2.76,0-5-2.24-5-5V5C0,2.24,2.24,0,5,0H31c2.76,0,5,2.24,5,5V31Z"/><path class="cls-1" d="M6,13h5V30H6V13Zm2.48-2h-.03c-1.49,0-2.46-1.11-2.46-2.5s.99-2.5,2.51-2.5,2.46,1.08,2.49,2.5c0,1.39-.97,2.5-2.52,2.5ZM30,30h-5v-9.1c0-2.2-1.23-3.7-3.19-3.7-1.5,0-2.31,1.01-2.71,1.99-.14,.35-.1,1.32-.1,1.81v9h-5V13h5v2.62c.72-1.12,1.85-2.62,4.74-2.62,3.58,0,6.26,2.25,6.26,7.27v9.73h0Z"/></g></g></svg>