<svg width="61" height="61" viewBox="0 0 61 61" fill="none" xmlns="http://www.w3.org/2000/svg">
<path d="M0 6.77778C0 3.03306 3.03306 0 6.77778 0H54.2222C57.9669 0 61 3.03306 61 6.77778V54.2222C61 57.9669 57.9669 61 54.2222 61H6.77778C3.03306 61 0 57.9669 0 54.2222V6.77778Z" fill="white"/>
<path d="M31.0042 38.4537C28.4276 38.3817 26.2001 37.4851 24.3778 35.6409C23.7796 35.0362 23.6186 34.3025 23.9087 33.5229C24.1987 32.7432 24.8039 32.2924 25.649 32.2255C26.3462 32.1695 26.8853 32.4893 27.3804 32.9601C29.4738 34.9532 32.7775 34.9103 34.827 32.8792C35.5131 32.1985 36.1943 31.5128 36.8774 30.8301C39.0108 28.699 41.1443 26.568 43.2777 24.4359C44.9111 22.8027 45.3872 20.4497 44.499 18.4076C43.5728 16.2766 41.5484 14.9942 39.2189 15.0961C37.8886 15.1541 36.7304 15.6599 35.7602 16.5745C35.3481 16.9623 34.97 17.3871 34.5539 17.7709C33.7557 18.5046 32.5545 18.4976 31.7873 17.7749C31.0462 17.0762 30.9151 15.8728 31.5863 15.1011C32.9896 13.4878 34.5929 12.1554 36.6914 11.4857C42.8757 9.51162 49.339 14.5314 48.9329 21.0085C48.7849 23.3644 47.9407 25.4175 46.2854 27.0938C43.3478 30.0684 40.3921 33.0271 37.4085 35.9548C35.7462 37.5861 33.2996 38.4897 31.0062 38.4537H31.0042Z" fill="white" stroke="black" stroke-miterlimit="10"/>
<path d="M28.9508 21.5632C31.5373 21.6292 33.7388 22.5138 35.5591 24.298C36.4053 25.1266 36.4473 26.3651 35.6872 27.1657C34.889 28.0063 33.6827 28.0193 32.7886 27.1957C30.3781 24.9777 27.2504 25.0557 24.9399 27.3766C22.1663 30.1624 19.3767 32.9321 16.6052 35.7199C15.0888 37.2442 14.6517 39.6441 15.4999 41.6023C16.3881 43.6534 18.3965 44.9918 20.581 44.9368C22.0343 44.9008 23.3106 44.389 24.3538 43.3515C24.7079 42.9986 25.0549 42.6388 25.416 42.293C26.2422 41.5013 27.4604 41.4973 28.2486 42.276C29.0378 43.0566 29.0488 44.2661 28.2796 45.1037C26.7933 46.721 25.1369 48.0594 22.9465 48.6361C18.8606 49.7116 14.5367 47.9514 12.3663 44.2841C10.2288 40.6737 10.7269 36.0118 13.6535 33.0131C16.5621 30.0314 19.5158 27.0928 22.4864 24.1731C24.2788 22.4119 26.4942 21.6072 28.9528 21.5632H28.9508Z" fill="white" stroke="black" stroke-miterlimit="10"/>
</svg>
