<?xml version="1.0" encoding="UTF-8"?><svg id="Capa_2" xmlns="http://www.w3.org/2000/svg" viewBox="0 0 37 37"><defs><style>.cls-1{fill:none;stroke:#000;stroke-miterlimit:10;}</style></defs><g id="Capa_1-2"><g><path class="cls-1" d="M.5,4.5C.5,2.29,2.29,.5,4.5,.5h28c2.21,0,4,1.79,4,4v28c0,2.21-1.79,4-4,4H4.5c-2.21,0-4-1.79-4-4V4.5Z"/><path class="cls-1" d="M30.43,11.99l-6.51,6.51,6.51,6.51c.04-.16,.08-.33,.08-.51V12.5c0-.18-.03-.35-.07-.51Zm-9.24,6.41l7.82-7.82c-.17-.04-.33-.07-.51-.07H8.5c-.18,0-.35,.03-.51,.07l7.82,7.82c1.48,1.48,3.89,1.48,5.38,0Zm-2.69,3.11c-1.44,0-2.87-.54-3.99-1.6l-6.52,6.52c.16,.04,.33,.07,.51,.07H28.5c.18,0,.35-.03,.51-.07l-6.52-6.52c-1.12,1.06-2.55,1.6-3.99,1.6ZM6.57,11.99c-.04,.16-.07,.33-.07,.51v12c0,.18,.03,.35,.07,.51l6.51-6.51-6.51-6.51Z"/></g></g></svg>