<svg width="60" height="60" viewBox="0 0 60 60" fill="none" xmlns="http://www.w3.org/2000/svg">
<g clip-path="url(#clip0_372_8968)">
<path d="M0 6.66667C0 2.98333 2.98333 0 6.66667 0H53.3333C57.0167 0 60 2.98333 60 6.66667V53.3333C60 57.0167 57.0167 60 53.3333 60H6.66667C2.98333 60 0 57.0167 0 53.3333V6.66667Z" fill="#EE7164"/>
<path d="M49.8833 19.15L39.0333 30L49.8833 40.85C49.95 40.5833 50.0167 40.3 50.0167 40V20C50.0167 19.7 49.9667 19.4167 49.9 19.15H49.8833ZM34.4833 29.8333L47.5167 16.8C47.2333 16.7333 46.9667 16.6833 46.6667 16.6833H13.3333C13.0333 16.6833 12.75 16.7333 12.4833 16.8L25.5167 29.8333C27.9833 32.3 32 32.3 34.4833 29.8333V29.8333ZM30 35.0167C27.6 35.0167 25.2167 34.1167 23.35 32.35L12.4833 43.2167C12.75 43.2833 13.0333 43.3333 13.3333 43.3333H46.6667C46.9667 43.3333 47.25 43.2833 47.5167 43.2167L36.65 32.35C34.7833 34.1167 32.4 35.0167 30 35.0167V35.0167ZM10.1167 19.15C10.05 19.4167 10 19.7 10 20V40C10 40.3 10.05 40.5833 10.1167 40.85L20.9667 30L10.1167 19.15Z" fill="white"/>
</g>
<defs>
<clipPath id="clip0_372_8968">
<rect width="60" height="60" fill="white"/>
</clipPath>
</defs>
</svg>
