<svg width="62" height="62" viewBox="0 0 62 62" fill="none" xmlns="http://www.w3.org/2000/svg">
<path d="M1 7.66667C1 3.98333 3.98333 1 7.66667 1H54.3333C58.0167 1 61 3.98333 61 7.66667V54.3333C61 58.0167 58.0167 61 54.3333 61H7.66667C3.98333 61 1 58.0167 1 54.3333V7.66667Z" fill="white" stroke="black" stroke-miterlimit="10"/>
<path d="M50.8831 20.15L40.0331 31L50.8831 41.85C50.9498 41.5833 51.0164 41.3 51.0164 41V21C51.0164 20.7 50.9664 20.4167 50.8998 20.15H50.8831ZM35.4831 30.8333L48.5164 17.8C48.2331 17.7333 47.9664 17.6833 47.6664 17.6833H14.3331C14.0331 17.6833 13.7498 17.7333 13.4831 17.8L26.5164 30.8333C28.9831 33.3 32.9998 33.3 35.4831 30.8333V30.8333ZM30.9998 36.0167C28.5998 36.0167 26.2164 35.1167 24.3498 33.35L13.4831 44.2167C13.7498 44.2833 14.0331 44.3333 14.3331 44.3333H47.6664C47.9664 44.3333 48.2498 44.2833 48.5164 44.2167L37.6498 33.35C35.7831 35.1167 33.3998 36.0167 30.9998 36.0167V36.0167ZM11.1164 20.15C11.0498 20.4167 10.9998 20.7 10.9998 21V41C10.9998 41.3 11.0498 41.5833 11.1164 41.85L21.9664 31L11.1164 20.15Z" fill="white" stroke="black" stroke-miterlimit="10"/>
</svg>
