<svg width="62" height="62" viewBox="0 0 62 62" fill="none" xmlns="http://www.w3.org/2000/svg">
<path d="M1 7.66667C1 3.98333 3.98333 1 7.66667 1H54.3333C58.0167 1 61 3.98333 61 7.66667V54.3333C61 58.0167 58.0167 61 54.3333 61H7.66667C3.98333 61 1 58.0167 1 54.3333V7.66667Z" fill="white" stroke="black" stroke-miterlimit="10"/>
<path d="M20.1667 44C27.3465 44 33.1667 38.1797 33.1667 31C33.1667 23.8203 27.3465 18 20.1667 18C12.987 18 7.16675 23.8203 7.16675 31C7.16675 38.1797 12.987 44 20.1667 44Z" fill="white" stroke="black" stroke-miterlimit="10"/>
<path d="M41.8333 42.9166C45.4231 42.9166 48.3333 37.5813 48.3333 30.9999C48.3333 24.4185 45.4231 19.0833 41.8333 19.0833C38.2434 19.0833 35.3333 24.4185 35.3333 30.9999C35.3333 37.5813 38.2434 42.9166 41.8333 42.9166Z" fill="white" stroke="black" stroke-miterlimit="10"/>
<path d="M52.6835 41.8332C53.8801 41.8332 54.8502 36.9829 54.8502 30.9998C54.8502 25.0168 53.8801 20.1665 52.6835 20.1665C51.4869 20.1665 50.5168 25.0168 50.5168 30.9998C50.5168 36.9829 51.4869 41.8332 52.6835 41.8332Z" fill="white" stroke="black" stroke-miterlimit="10"/>
</svg>
