<svg width="60" height="60" viewBox="0 0 60 60" fill="none" xmlns="http://www.w3.org/2000/svg">
<g clip-path="url(#clip0_372_8973)">
<path d="M0 6.66667C0 2.98333 2.98333 0 6.66667 0H53.3333C57.0167 0 60 2.98333 60 6.66667V53.3333C60 57.0167 57.0167 60 53.3333 60H6.66667C2.98333 60 0 57.0167 0 53.3333V6.66667Z" fill="black"/>
<path d="M19.1667 43C26.3465 43 32.1667 37.1797 32.1667 30C32.1667 22.8203 26.3465 17 19.1667 17C11.987 17 6.16675 22.8203 6.16675 30C6.16675 37.1797 11.987 43 19.1667 43Z" fill="white"/>
<path d="M40.8335 41.9167C44.4233 41.9167 47.3335 36.5814 47.3335 30C47.3335 23.4186 44.4233 18.0834 40.8335 18.0834C37.2436 18.0834 34.3335 23.4186 34.3335 30C34.3335 36.5814 37.2436 41.9167 40.8335 41.9167Z" fill="white"/>
<path d="M51.6835 40.8333C52.8801 40.8333 53.8502 35.983 53.8502 30C53.8502 24.0169 52.8801 19.1666 51.6835 19.1666C50.4869 19.1666 49.5168 24.0169 49.5168 30C49.5168 35.983 50.4869 40.8333 51.6835 40.8333Z" fill="white"/>
</g>
<defs>
<clipPath id="clip0_372_8973">
<rect width="60" height="60" fill="white"/>
</clipPath>
</defs>
</svg>
