<svg width="40" height="40" viewBox="0 0 40 40" fill="none" xmlns="http://www.w3.org/2000/svg">
<path d="M20 35C28.2843 35 35 28.2843 35 20C35 11.7157 28.2843 5 20 5C11.7157 5 5 11.7157 5 20C5 28.2843 11.7157 35 20 35Z" stroke="black" stroke-width="2.04488" stroke-linecap="round" stroke-linejoin="round"/>
<path d="M20 21.6667C22.7614 21.6667 25 19.4281 25 16.6667C25 13.9053 22.7614 11.6667 20 11.6667C17.2386 11.6667 15 13.9053 15 16.6667C15 19.4281 17.2386 21.6667 20 21.6667Z" stroke="black" stroke-width="2.04488" stroke-linecap="round" stroke-linejoin="round"/>
<path d="M10.2798 31.415C10.6923 30.0421 11.5364 28.8387 12.6869 27.9833C13.8373 27.128 15.2329 26.6663 16.6665 26.6667H23.3331C24.7686 26.6662 26.1658 27.129 27.3171 27.9863C28.4684 28.8436 29.3122 30.0497 29.7231 31.425" stroke="black" stroke-width="2.04488" stroke-linecap="round" stroke-linejoin="round"/>
</svg>
