<svg width="31" height="30" viewBox="0 0 31 30" fill="none" xmlns="http://www.w3.org/2000/svg">
<path d="M23.0001 8.95C22.9251 8.9375 22.8376 8.9375 22.7626 8.95C21.0376 8.8875 19.6626 7.475 19.6626 5.725C19.6626 3.9375 21.1001 2.5 22.8876 2.5C24.6751 2.5 26.1126 3.95 26.1126 5.725C26.1001 7.475 24.7251 8.8875 23.0001 8.95Z" stroke="#292D32" stroke-width="1.5" stroke-linecap="round" stroke-linejoin="round"/>
<path d="M21.7126 18.05C23.4251 18.3375 25.3126 18.0375 26.6376 17.15C28.4001 15.975 28.4001 14.05 26.6376 12.875C25.3001 11.9875 23.3875 11.6875 21.675 11.9875" stroke="#292D32" stroke-width="1.5" stroke-linecap="round" stroke-linejoin="round"/>
<path d="M7.9626 8.95C8.0376 8.9375 8.1251 8.9375 8.2001 8.95C9.9251 8.8875 11.3001 7.475 11.3001 5.725C11.3001 3.9375 9.8626 2.5 8.0751 2.5C6.2876 2.5 4.8501 3.95 4.8501 5.725C4.8626 7.475 6.2376 8.8875 7.9626 8.95Z" stroke="#292D32" stroke-width="1.5" stroke-linecap="round" stroke-linejoin="round"/>
<path d="M9.25005 18.05C7.53755 18.3375 5.65005 18.0375 4.32505 17.15C2.56255 15.975 2.56255 14.05 4.32505 12.875C5.66255 11.9875 7.57505 11.6875 9.28755 11.9875" stroke="#292D32" stroke-width="1.5" stroke-linecap="round" stroke-linejoin="round"/>
<path d="M15.4999 18.2875C15.4249 18.275 15.3374 18.275 15.2624 18.2875C13.5374 18.225 12.1624 16.8125 12.1624 15.0625C12.1624 13.275 13.5999 11.8375 15.3874 11.8375C17.1749 11.8375 18.6124 13.2875 18.6124 15.0625C18.5999 16.8125 17.2249 18.2375 15.4999 18.2875Z" fill="#B4AAF1" stroke="#292D32" stroke-width="1.5" stroke-linecap="round" stroke-linejoin="round"/>
<path d="M11.8624 22.225C10.0999 23.4 10.0999 25.325 11.8624 26.5C13.8624 27.8375 17.1374 27.8375 19.1374 26.5C20.8999 25.325 20.8999 23.4 19.1374 22.225C17.1499 20.9 13.8624 20.9 11.8624 22.225Z" fill="#B4AAF1" stroke="#292D32" stroke-width="1.5" stroke-linecap="round" stroke-linejoin="round"/>
</svg>
