<svg width="40" height="40" viewBox="0 0 40 40" fill="none" xmlns="http://www.w3.org/2000/svg">
<path d="M14.9998 6.66669H19.9998L23.3332 10H31.6665C32.5506 10 33.3984 10.3512 34.0235 10.9763C34.6486 11.6015 34.9998 12.4493 34.9998 13.3334V25C34.9998 25.8841 34.6486 26.7319 34.0235 27.357C33.3984 27.9822 32.5506 28.3334 31.6665 28.3334H14.9998C14.1158 28.3334 13.2679 27.9822 12.6428 27.357C12.0177 26.7319 11.6665 25.8841 11.6665 25V10C11.6665 9.11597 12.0177 8.26812 12.6428 7.643C13.2679 7.01788 14.1158 6.66669 14.9998 6.66669Z" stroke="black" stroke-width="2.04488" stroke-linecap="round" stroke-linejoin="round"/>
<path d="M28.3333 28.3333V31.6666C28.3333 32.5507 27.9821 33.3985 27.357 34.0237C26.7319 34.6488 25.8841 35 25 35H8.33333C7.44928 35 6.60143 34.6488 5.97631 34.0237C5.35119 33.3985 5 32.5507 5 31.6666V16.6666C5 15.7826 5.35119 14.9347 5.97631 14.3096C6.60143 13.6845 7.44928 13.3333 8.33333 13.3333H11.6667" stroke="black" stroke-width="2.04488" stroke-linecap="round" stroke-linejoin="round"/>
</svg>
