<svg width="31" height="30" viewBox="0 0 31 30" fill="none" xmlns="http://www.w3.org/2000/svg">
<path d="M10.5 27.5H20.5C25.525 27.5 26.425 25.4875 26.6875 23.0375L27.625 13.0375C27.9625 9.9875 27.0875 7.5 21.75 7.5H9.25003C3.91253 7.5 3.03753 9.9875 3.37503 13.0375L4.31253 23.0375C4.57503 25.4875 5.47503 27.5 10.5 27.5Z" fill="#B4AAF1" stroke="#292D32" stroke-width="1.5" stroke-miterlimit="10" stroke-linecap="round" stroke-linejoin="round"/>
<path d="M10.5 7.5V6.5C10.5 4.2875 10.5 2.5 14.5 2.5H16.5C20.5 2.5 20.5 4.2875 20.5 6.5V7.5" stroke="#292D32" stroke-width="1.5" stroke-miterlimit="10" stroke-linecap="round" stroke-linejoin="round"/>
<path d="M18 16.25V17.5C18 17.5125 18 17.5125 18 17.525C18 18.8875 17.9875 20 15.5 20C13.025 20 13 18.9 13 17.5375V16.25C13 15 13 15 14.25 15H16.75C18 15 18 15 18 16.25Z" fill="white" stroke="#292D32" stroke-width="1.5" stroke-miterlimit="10" stroke-linecap="round" stroke-linejoin="round"/>
<path d="M27.5625 13.75C24.675 15.85 21.375 17.1 18 17.525" stroke="#292D32" stroke-width="1.5" stroke-miterlimit="10" stroke-linecap="round" stroke-linejoin="round"/>
<path d="M3.7749 14.0875C6.5874 16.0125 9.7624 17.175 12.9999 17.5375" stroke="#292D32" stroke-width="1.5" stroke-miterlimit="10" stroke-linecap="round" stroke-linejoin="round"/>
</svg>
